<svg width="189" height="52" xmlns="http://www.w3.org/2000/svg" xmlns:xlink="http://www.w3.org/1999/xlink"><defs><path id="a" d="M.66.398h9.043v5.347H.66V.398z"/><path id="c" d="M0 52.602h188.88V1H0z"/></defs><g transform="translate(0 -1)" fill="none" fill-rule="evenodd"><g transform="translate(29 .602)"><mask id="b" fill="#fff"><use xlink:href="#a"/></mask><path d="M3.334 5.745H7.03a2.674 2.674 0 0 0 0-5.347H3.334a2.674 2.674 0 0 0 0 5.347" fill="#00A3B1" mask="url(#b)"/></g><path d="M32.334 14.047h8.688a2.673 2.673 0 1 0 0-5.346h-8.688a2.674 2.674 0 1 0 0 5.346m0 7.702h11.744a2.673 2.673 0 1 0 0-5.346H32.334a2.674 2.674 0 1 0 0 5.346m13.462 2.355H32.334a2.674 2.674 0 1 0 0 5.346h13.462a2.674 2.674 0 1 0 0-5.346m-1.718 7.701H32.334a2.673 2.673 0 1 0 0 5.347h11.744a2.674 2.674 0 0 0 0-5.347m-3.055 7.701h-8.688a2.674 2.674 0 1 0 0 5.347h8.688a2.674 2.674 0 0 0 0-5.347m-4.993 7.702h-3.695a2.674 2.674 0 1 0 0 5.347h3.696a2.674 2.674 0 0 0 0-5.347" fill="#00A3B1"/><path d="M17.185 6.394h7.256a2.674 2.674 0 0 0 0-5.347h-7.256a2.674 2.674 0 0 0 0 5.347m-9.738 7.701H24.44a2.674 2.674 0 0 0 0-5.347H7.447a2.673 2.673 0 0 0 0 5.347m-3.055 7.702h20.049a2.674 2.674 0 0 0 0-5.348H4.392a2.674 2.674 0 0 0 0 5.348m-1.719 7.701h21.768a2.672 2.672 0 0 0 0-5.347H2.673a2.674 2.674 0 0 0 0 5.347m1.719 7.701h20.049a2.673 2.673 0 0 0 0-5.346H4.392a2.674 2.674 0 1 0 0 5.346M7.447 44.9H24.44a2.673 2.673 0 1 0 0-5.346H7.447a2.673 2.673 0 1 0 0 5.346m9.738 7.701h7.256a2.673 2.673 0 0 0 0-5.346h-7.256a2.674 2.674 0 1 0 0 5.346M43.4 2.681h-.988a1.832 1.832 0 1 0 0 3.665h.988a1.832 1.832 0 1 0 0-3.665m5.673 7.992h-1.978a1.832 1.832 0 0 0 0 3.665h1.978a1.832 1.832 0 1 0 0-3.665m3.822 7.843h-2.966a1.832 1.832 0 1 0 0 3.665h2.966a1.832 1.832 0 1 0 0-3.665m3.229 6.476h-4.152a1.832 1.832 0 1 0 0 3.665h4.152a1.832 1.832 0 1 0 0-3.665m-2.24 6.813H49.93a1.832 1.832 0 1 0 0 3.665h3.955a1.832 1.832 0 1 0 0-3.665m-4.812 7.598h-1.978a1.832 1.832 0 0 0 0 3.665h1.978a1.832 1.832 0 1 0 0-3.665M43.4 47.104h-.988a1.832 1.832 0 1 0 0 3.665h.988a1.832 1.832 0 1 0 0-3.665m34.984-34.071c0-.471-.165-.871-.494-1.2a1.636 1.636 0 0 0-1.2-.495h-3.956v3.43h3.955c.47 0 .871-.164 1.201-.494.33-.33.494-.73.494-1.2v-.041zm1.635 2.462c.538.377.97.86 1.292 1.454.322.592.484 1.237.484 1.938v.04c0 .564-.108 1.099-.323 1.604a4.063 4.063 0 0 1-.888 1.312c-.377.37-.814.663-1.312.878a3.974 3.974 0 0 1-1.594.323h-4.017l.97-2.422h3.047c.471 0 .871-.165 1.2-.494.33-.33.495-.731.495-1.201v-.04c0-.472-.165-.872-.495-1.202a1.63 1.63 0 0 0-1.2-.494h-4.944v5.853h-2.422V8.916h6.377c.565 0 1.1.108 1.604.323.505.215.943.512 1.312.888a4.3 4.3 0 0 1 .88 1.31c.213.499.321 1.032.321 1.596v.04c0 .458-.07.892-.212 1.302a4.31 4.31 0 0 1-.575 1.12zm8.961 3.714c-.23.256-.454.498-.676.727-.222.229-.441.458-.656.686h4.662v2.422h-8.9v-1.695l.464-.424 1.049-1.01c.31-.31.66-.662 1.05-1.06.39-.396.793-.823 1.21-1.281.768-.82 1.36-1.507 1.776-2.058.417-.552.724-.995.919-1.332.195-.336.313-.576.353-.716.04-.142.06-.22.06-.233a2.165 2.165 0 0 0-.645-1.544 2.286 2.286 0 0 0-.707-.463 2.136 2.136 0 0 0-.848-.172c-.308 0-.594.057-.857.172a2.333 2.333 0 0 0-.696.463c-.202.196-.36.427-.474.697a2.131 2.131 0 0 0-.172.847H83.47c0-.62.117-1.208.354-1.766a4.608 4.608 0 0 1 .999-1.483 4.32 4.32 0 0 1 1.493-1.01 4.682 4.682 0 0 1 1.775-.342c.619 0 1.212.114 1.777.343a4.336 4.336 0 0 1 1.494 1.009c.43.43.763.925.999 1.483.234.558.352 1.147.352 1.766 0 .404-.104.848-.312 1.332-.21.485-.535 1.043-.98 1.675-.604.875-1.42 1.864-2.441 2.967m13.824-6.176c0-.471-.165-.871-.494-1.2-.33-.33-.73-.495-1.2-.495h-3.956v3.43h3.955c.471 0 .871-.164 1.201-.494.33-.33.494-.73.494-1.2v-.041zm1.635 2.462c.538.377.97.86 1.292 1.454.323.592.484 1.237.484 1.938v.04c0 .564-.108 1.099-.323 1.604a4.047 4.047 0 0 1-.888 1.312 4.28 4.28 0 0 1-1.31.878 3.982 3.982 0 0 1-1.596.323h-4.017l.97-2.422h3.047c.471 0 .871-.165 1.201-.494a1.64 1.64 0 0 0 .494-1.201v-.04c0-.472-.165-.872-.494-1.202-.33-.33-.73-.494-1.2-.494h-4.945v5.853h-2.422V8.916h6.377c.565 0 1.1.108 1.604.323.505.215.943.512 1.313.888.37.377.662.814.878 1.31a4.01 4.01 0 0 1 .322 1.596v.04c0 .458-.07.892-.212 1.302a4.28 4.28 0 0 1-.575 1.12zM81.977 29.266v8.477c0 .821-.155 1.591-.465 2.31a5.964 5.964 0 0 1-1.271 1.888 5.971 5.971 0 0 1-1.887 1.271 5.78 5.78 0 0 1-2.311.464 5.796 5.796 0 0 1-2.311-.464 5.971 5.971 0 0 1-1.887-1.27 5.964 5.964 0 0 1-1.271-1.889 5.77 5.77 0 0 1-.464-2.31v-8.477h2.422v8.477a3.452 3.452 0 0 0 1.029 2.482 3.463 3.463 0 0 0 2.482 1.03c.969 0 1.796-.343 2.483-1.03a3.464 3.464 0 0 0 1.029-2.482v-8.477h2.422zm7.406 3.754c.66 0 1.258.125 1.797.373.537.25 1 .593 1.382 1.03.384.437.68.946.887 1.524.21.578.314 1.197.314 1.856v5.591h-2.422v-5.59c0-.674-.235-1.232-.706-1.676a2.255 2.255 0 0 0-1.655-.686c-.659 0-1.218.228-1.675.686a2.277 2.277 0 0 0-.687 1.675v5.591h-2.422V33.302h2.422v.768c.364-.31.774-.562 1.232-.757a3.873 3.873 0 0 1 1.533-.293" fill="#FFF"/><mask id="d" fill="#fff"><use xlink:href="#c"/></mask><path d="M95.983 43.395h2.422V33.303h-2.422v10.092zm0-11.706h2.422v-2.422h-2.422v2.422zm10.374 11.705h-2.221a3.263 3.263 0 0 1-2.341-.979 3.498 3.498 0 0 1-.706-1.06 3.208 3.208 0 0 1-.262-1.29v-8.8l2.422-.606v3.854h1.413l.605 2.422h-2.018v3.13c0 .255.087.47.262.644a.853.853 0 0 0 .625.263h1.616l.605 2.422zm6.539-7.952c-.781 0-1.467.282-2.06.848a2.768 2.768 0 0 0-.585.847h5.289a2.782 2.782 0 0 0-.585-.847 2.802 2.802 0 0 0-2.06-.848zm2.644 4.117h-5.29c.136.31.332.585.587.827.283.284.599.495.949.636.349.142.719.212 1.11.212a2.83 2.83 0 0 0 1.473-.383l2.522 1.009a5.073 5.073 0 0 1-1.755 1.322 5.29 5.29 0 0 1-2.24.474c-.74 0-1.434-.138-2.08-.413a5.324 5.324 0 0 1-2.835-2.836 5.201 5.201 0 0 1-.413-2.059c0-.74.138-1.432.413-2.079a5.335 5.335 0 0 1 2.836-2.835 5.25 5.25 0 0 1 2.079-.414 5.31 5.31 0 0 1 4.914 3.249c.275.647.413 1.339.413 2.079 0 .431-.047.834-.14 1.211h-2.543zm14.53-10.313v14.148h-2.421v-5.045c0-.821-.283-1.507-.848-2.06a2.78 2.78 0 0 0-2.04-.847c-.805 0-1.492.283-2.057.848a2.803 2.803 0 0 0-.848 2.059c0 .793.283 1.473.848 2.038.269.283.582.495.938.635a3 3 0 0 0 1.12.212c.39 0 .747-.066 1.07-.201l.868 2.159c-.618.31-1.331.464-2.14.464a4.957 4.957 0 0 1-3.674-1.554 5.268 5.268 0 0 1-1.068-1.695 5.53 5.53 0 0 1-.383-2.058c0-.741.127-1.433.383-2.08a5.278 5.278 0 0 1 1.069-1.695c.458-.484 1-.864 1.625-1.14a5.039 5.039 0 0 1 2.049-.414c.646 0 1.224.1 1.736.303.51.202.96.458 1.352.767v-4.844h2.422zm16.57 2.442h-4.138v11.706h-2.422V31.688h-4.157v-2.422h10.717zm3.824 1.614c.478-.2 1.02-.303 1.625-.303v2.422c-.808 0-1.494.283-2.059.848-.565.593-.847 1.28-.847 2.058v5.067h-2.422V33.282h2.422v.788c.376-.31.803-.566 1.281-.768m13.492-.019v10.11h-2.422v-5.045c0-.807-.282-1.493-.849-2.058a2.797 2.797 0 0 0-2.058-.848c-.39 0-.764.074-1.12.223a2.86 2.86 0 0 0-.939.625 2.805 2.805 0 0 0-.847 2.058c0 .794.284 1.474.847 2.039.27.283.582.495.94.635.355.142.73.212 1.12.212.404 0 .767-.066 1.09-.201l.868 2.159c-.62.31-1.34.464-2.16.464a4.957 4.957 0 0 1-3.674-1.554 5.25 5.25 0 0 1-1.068-1.695 5.532 5.532 0 0 1-.385-2.06c0-.74.129-1.431.385-2.078a5.261 5.261 0 0 1 1.069-1.695c.458-.484 1-.864 1.625-1.14a5.035 5.035 0 0 1 2.049-.414c.659 0 1.244.1 1.756.303.51.202.96.458 1.35.767v-.807h2.423zm12.453-4.037v14.148h-2.422v-5.045c0-.821-.283-1.507-.848-2.06a2.78 2.78 0 0 0-2.04-.847c-.805 0-1.492.283-2.057.848a2.803 2.803 0 0 0-.848 2.059c0 .793.283 1.473.848 2.038.269.283.582.495.938.635a3 3 0 0 0 1.12.212c.39 0 .747-.066 1.07-.201l.868 2.159c-.618.31-1.332.464-2.14.464-.74 0-1.422-.138-2.048-.413a4.946 4.946 0 0 1-1.625-1.141 5.25 5.25 0 0 1-1.07-1.695 5.53 5.53 0 0 1-.383-2.058c0-.741.128-1.433.384-2.08a5.261 5.261 0 0 1 1.069-1.695 4.973 4.973 0 0 1 3.674-1.554c.646 0 1.224.1 1.736.303.51.202.96.458 1.352.767v-4.844h2.422zm7.143 6.196c-.78 0-1.466.282-2.059.848a2.764 2.764 0 0 0-.585.847h5.29a2.768 2.768 0 0 0-.587-.847 2.8 2.8 0 0 0-2.059-.848zm2.645 4.117h-5.289c.134.31.331.585.585.827.284.284.6.495.95.636.35.142.72.212 1.11.212a2.83 2.83 0 0 0 1.473-.383l2.522 1.009a5.077 5.077 0 0 1-1.756 1.322 5.283 5.283 0 0 1-2.24.474c-.74 0-1.433-.138-2.078-.413a5.313 5.313 0 0 1-2.836-2.836 5.202 5.202 0 0 1-.414-2.059c0-.74.14-1.432.414-2.079a5.318 5.318 0 0 1 4.914-3.249c.74 0 1.434.139 2.08.414a5.321 5.321 0 0 1 2.835 2.835c.275.647.413 1.339.413 2.079 0 .431-.047.834-.14 1.211h-2.543z" fill="#FFF" mask="url(#d)"/></g></svg>