<?xml version="1.0" encoding="utf-8"?>
<!-- Generator: Adobe Illustrator 22.0.0, SVG Export Plug-In . SVG Version: 6.00 Build 0)  -->
<svg version="1.1" id="Слой_1" xmlns="http://www.w3.org/2000/svg" xmlns:xlink="http://www.w3.org/1999/xlink" x="0px" y="0px"
	 viewBox="0 0 487 189.2" style="enable-background:new 0 0 487 189.2;" xml:space="preserve">
<style type="text/css">
	.st0{fill:#FFFFFF;}
</style>
<g>
	<g>
		<path class="st0" d="M237.9,70.3v9h-35.2V32.5h34.5v9.1h-24.4v9.4h19v9h-19v10.4H237.9z"/>
		<path class="st0" d="M253.2,79.3h-11.4l16.4-24.4l-15.1-22.4h11.4l10,15.1l10-15.1H286L271,54.9l16.4,24.4H276l-11.4-17.1
			L253.2,79.3z"/>
		<path class="st0" d="M313.7,32.5c4.8,0,8.8,1.5,12,4.5s4.8,6.8,4.8,11.2c0,4.5-1.6,8.2-4.7,11.2c-3.2,3-7.2,4.5-12,4.5h-9.7v15.4
			H294V32.5H313.7z M304.1,41.5v13.4h9.3c2,0,3.7-0.6,5-1.9c1.3-1.3,2-2.9,2-4.7c0-1.9-0.7-3.5-2-4.8c-1.3-1.3-3-1.9-5-1.9H304.1z"
			/>
		<path class="st0" d="M344.2,38.7c4.9-4.8,10.9-7.2,18.1-7.2c7.1,0,13.2,2.4,18.1,7.2s7.4,10.5,7.4,17.3s-2.5,12.5-7.4,17.3
			c-4.9,4.8-10.9,7.2-18.1,7.2c-7.1,0-13.2-2.4-18.1-7.2c-4.9-4.8-7.4-10.5-7.4-17.3S339.3,43.4,344.2,38.7z M351.6,66.9
			c2.9,3,6.5,4.4,10.7,4.4c4.2,0,7.7-1.5,10.7-4.4s4.4-6.6,4.4-10.9s-1.5-8-4.4-10.9c-2.9-3-6.5-4.5-10.7-4.5
			c-4.2,0-7.7,1.5-10.7,4.5c-2.9,3-4.4,6.6-4.4,10.9S348.7,63.9,351.6,66.9z"/>
		<path class="st0" d="M397,32.5h20.7c4.6,0,8.5,1.5,11.5,4.5s4.6,6.6,4.6,10.9c0,1.9-0.3,3.6-0.9,5.3c-0.6,1.6-1.3,3-2.1,4
			c-0.8,1-1.6,1.9-2.4,2.6c-0.8,0.7-1.5,1.2-2.1,1.5l-0.8,0.5l10,17.7h-10.7l-9-16.4h-8.7v16.4H397V32.5z M422,43.3
			c-1.2-1.2-2.7-1.8-4.6-1.8h-10.4v12.4h10.4c1.8,0,3.3-0.6,4.6-1.7c1.2-1.2,1.8-2.6,1.8-4.3C423.8,46,423.2,44.5,422,43.3z"/>
		<path class="st0" d="M475.3,32.5v9.1h-13.4v37.8h-10V41.5h-13.4v-9.1H475.3z"/>
	</g>
	<g>
		<g>
			<path class="st0" d="M204.8,157.7c1.4-1.4,3.2-2.1,5.3-2.1c2.1,0,3.8,0.7,5.3,2.1c1.4,1.4,2.2,3.1,2.2,5c0,2-0.7,3.7-2.2,5.1
				c-1.4,1.4-3.2,2.1-5.3,2.1c-2.1,0-3.8-0.7-5.3-2.1c-1.4-1.4-2.2-3.1-2.2-5.1C202.6,160.7,203.3,159.1,204.8,157.7z M206.9,165.9
				c0.9,0.9,1.9,1.3,3.1,1.3c1.2,0,2.3-0.4,3.1-1.3c0.9-0.9,1.3-1.9,1.3-3.2s-0.4-2.3-1.3-3.2c-0.9-0.9-1.9-1.3-3.1-1.3
				c-1.2,0-2.3,0.4-3.1,1.3c-0.9,0.9-1.3,1.9-1.3,3.2S206.1,165,206.9,165.9z"/>
			<path class="st0" d="M237.2,155.9v13.7h-2.5l-6.7-8.7v8.7H225v-13.7h2.6l6.7,8.7v-8.7H237.2z"/>
			<path class="st0" d="M255.8,166.9v2.6h-10.3v-13.7h10.1v2.6h-7.1v2.7h5.6v2.6h-5.6v3H255.8z"/>
			<path class="st0" d="M270,163.7h-7.8v-1.8h7.8V163.7z"/>
			<path class="st0" d="M285.9,155.9c0.7,0.2,1.2,0.4,1.6,0.7c0.4,0.3,0.8,0.5,1.1,0.8c0.3,0.3,0.6,0.5,0.7,0.7l0.2,0.3l-1.9,1.9
				c0,0-0.1-0.1-0.2-0.2s-0.2-0.3-0.4-0.5c-0.2-0.2-0.5-0.4-0.8-0.6c-0.3-0.2-0.6-0.3-1.1-0.5c-0.4-0.1-0.9-0.2-1.4-0.2
				c-1.3,0-2.4,0.4-3.2,1.3c-0.9,0.9-1.3,1.9-1.3,3.2c0,1.3,0.4,2.4,1.3,3.2c0.9,0.9,1.9,1.3,3.2,1.3c0.5,0,1-0.1,1.4-0.2
				c0.5-0.1,0.8-0.3,1.1-0.5c0.3-0.2,0.6-0.4,0.8-0.6c0.2-0.2,0.4-0.4,0.5-0.5l0.2-0.2l1.8,1.9c0,0.1-0.1,0.2-0.2,0.3
				c-0.1,0.1-0.3,0.3-0.7,0.7c-0.4,0.3-0.7,0.6-1.2,0.8c-0.4,0.2-0.9,0.5-1.6,0.7c-0.7,0.2-1.4,0.3-2.1,0.3c-2.1,0-3.9-0.7-5.3-2.1
				c-1.4-1.4-2.2-3.1-2.2-5.1c0-2,0.7-3.7,2.2-5s3.2-2.1,5.3-2.1C284.5,155.6,285.2,155.7,285.9,155.9z"/>
			<path class="st0" d="M296.7,169.6v-13.7h2.9v11.1h6.4v2.6H296.7z"/>
			<path class="st0" d="M313,155.9h2.9v13.7H313V155.9z"/>
			<path class="st0" d="M333,155.9c0.7,0.2,1.2,0.4,1.6,0.7c0.4,0.3,0.8,0.5,1.1,0.8c0.3,0.3,0.6,0.5,0.7,0.7l0.2,0.3l-1.9,1.9
				c0,0-0.1-0.1-0.2-0.2s-0.2-0.3-0.4-0.5c-0.2-0.2-0.5-0.4-0.8-0.6c-0.3-0.2-0.6-0.3-1.1-0.5c-0.4-0.1-0.9-0.2-1.4-0.2
				c-1.3,0-2.4,0.4-3.2,1.3c-0.9,0.9-1.3,1.9-1.3,3.2c0,1.3,0.4,2.4,1.3,3.2c0.9,0.9,1.9,1.3,3.2,1.3c0.5,0,1-0.1,1.4-0.2
				c0.5-0.1,0.8-0.3,1.1-0.5c0.3-0.2,0.6-0.4,0.8-0.6c0.2-0.2,0.4-0.4,0.5-0.5l0.2-0.2l1.8,1.9c0,0.1-0.1,0.2-0.2,0.3
				c-0.1,0.1-0.3,0.3-0.7,0.7c-0.4,0.3-0.7,0.6-1.2,0.8c-0.4,0.2-0.9,0.5-1.6,0.7c-0.7,0.2-1.4,0.3-2.1,0.3c-2.1,0-3.9-0.7-5.3-2.1
				c-1.4-1.4-2.2-3.1-2.2-5.1c0-2,0.7-3.7,2.2-5s3.2-2.1,5.3-2.1C331.7,155.6,332.4,155.7,333,155.9z"/>
			<path class="st0" d="M346.8,161.8l5.4-6h3.4l-5.1,5.7l5.5,8h-3.4l-4-5.9l-1.8,1.9v3.9h-2.9v-13.7h2.9V161.8z"/>
			<path class="st0" d="M381.6,166.9v2.6h-10.3v-13.7h10.1v2.6h-7.1v2.7h5.6v2.6h-5.6v3H381.6z"/>
			<path class="st0" d="M390.9,169.6h-3.3l4.8-7.1l-4.4-6.6h3.3l2.9,4.4l2.9-4.4h3.3l-4.4,6.6l4.8,7.1h-3.3l-3.3-5L390.9,169.6z"/>
			<path class="st0" d="M413.4,155.9c1.4,0,2.6,0.4,3.5,1.3c0.9,0.9,1.4,2,1.4,3.3s-0.5,2.4-1.4,3.3c-0.9,0.9-2.1,1.3-3.5,1.3h-2.8
				v4.5h-2.9v-13.7H413.4z M410.6,158.5v3.9h2.7c0.6,0,1.1-0.2,1.5-0.6c0.4-0.4,0.6-0.8,0.6-1.4s-0.2-1-0.6-1.4
				c-0.4-0.4-0.9-0.6-1.5-0.6H410.6z"/>
			<path class="st0" d="M427.1,157.7c1.4-1.4,3.2-2.1,5.3-2.1s3.8,0.7,5.3,2.1s2.2,3.1,2.2,5c0,2-0.7,3.7-2.2,5.1
				c-1.4,1.4-3.2,2.1-5.3,2.1s-3.8-0.7-5.3-2.1c-1.4-1.4-2.2-3.1-2.2-5.1C424.9,160.7,425.7,159.1,427.1,157.7z M429.3,165.9
				c0.9,0.9,1.9,1.3,3.1,1.3c1.2,0,2.3-0.4,3.1-1.3c0.9-0.9,1.3-1.9,1.3-3.2s-0.4-2.3-1.3-3.2c-0.9-0.9-1.9-1.3-3.1-1.3
				c-1.2,0-2.3,0.4-3.1,1.3c-0.9,0.9-1.3,1.9-1.3,3.2S428.4,165,429.3,165.9z"/>
			<path class="st0" d="M447.3,155.9h6.1c1.4,0,2.5,0.4,3.4,1.3c0.9,0.9,1.3,1.9,1.3,3.2c0,0.5-0.1,1.1-0.3,1.5s-0.4,0.9-0.6,1.2
				c-0.2,0.3-0.5,0.5-0.7,0.8c-0.2,0.2-0.4,0.4-0.6,0.4l-0.2,0.1l2.9,5.2h-3.1l-2.6-4.8h-2.5v4.8h-2.9V155.9z M454.6,159
				c-0.4-0.3-0.8-0.5-1.3-0.5h-3v3.6h3c0.5,0,1-0.2,1.3-0.5c0.4-0.3,0.5-0.8,0.5-1.3C455.2,159.8,455,159.4,454.6,159z"/>
			<path class="st0" d="M475,155.9v2.6h-3.9v11.1h-2.9v-11.1h-3.9v-2.6H475z"/>
		</g>
	</g>
	<path class="st0" d="M172.8,95.2c0-1.2,0-2.5-0.1-3.7c0-0.4,0-0.8-0.1-1.2c-0.1-0.8-0.1-1.7-0.2-2.5c0-0.5-0.1-0.9-0.1-1.4
		c-0.1-0.8-0.2-1.6-0.3-2.4c-0.1-0.4-0.1-0.8-0.2-1.3c-0.2-1.1-0.4-2.2-0.6-3.2c-0.1-0.6-0.3-1.2-0.4-1.9c-0.1-0.5-0.2-1-0.3-1.5
		c-0.2-0.7-0.3-1.4-0.5-2.1c-0.1-0.4-0.2-0.7-0.3-1.1c-2.5-8.6-6.3-16.6-11.3-23.8c0,0,0,0,0,0c-1.6-2.4-3.4-4.6-5.3-6.8
		c0,0,0,0,0,0c-5.5-6.4-12.1-11.9-19.3-16.2c0,0,0,0,0,0c-2.6-1.5-5.2-2.9-8-4.2c0,0,0,0,0,0c-3.6-1.7-7.4-3.1-11.3-4.2
		c-4.6-1.3-9.3-2.3-14.2-2.7c0,0,0,0,0,0c-0.4,0-0.8-0.1-1.3-0.1c-0.5,0-1.1-0.1-1.6-0.1c-0.6,0-1.1-0.1-1.7-0.1
		c-1.1,0-2.2-0.1-3.4-0.1c-0.1,0-0.1,0-0.2,0c-0.1,0-0.1,0-0.2,0c-1.2,0-2.4,0-3.6,0.1c-0.2,0-0.4,0-0.6,0c-1.1,0.1-2.2,0.1-3.4,0.3
		c-0.3,0-0.6,0.1-0.9,0.1c-1,0.1-2,0.2-3,0.4c-0.4,0.1-0.8,0.1-1.3,0.2c-0.9,0.1-1.8,0.3-2.7,0.5c-0.5,0.1-1.1,0.2-1.6,0.3
		c-0.5,0.1-1.1,0.2-1.6,0.4c-0.9,0.2-1.8,0.4-2.7,0.7c-0.2,0-0.3,0.1-0.5,0.1c-4,1.1-7.9,2.6-11.6,4.3c0,0,0,0,0,0
		c-6.2,2.8-11.9,6.4-17.2,10.6c0,0,0,0,0,0c-12.8,10.4-22.4,24.6-27,40.9c0,0,0,0,0,0c-1.5,5.3-2.4,10.7-2.8,16.4
		c0,0.5-0.1,1.1-0.1,1.6c-0.1,1.2-0.1,2.5-0.1,3.7c0,0,0,0,0,0c0,1.2,0,2.4,0.1,3.7c0,0.3,0,0.7,0.1,1c0.1,1,0.1,2,0.2,3
		c0,0.3,0,0.6,0.1,0.9c0.1,1,0.2,2.1,0.4,3.1c0.1,0.5,0.2,1,0.2,1.6c0.1,0.6,0.2,1.2,0.3,1.8c0.2,1.1,0.4,2.2,0.7,3.3
		c0.1,0.3,0.2,0.7,0.2,1c0.2,0.7,0.4,1.5,0.6,2.2c1.3,4.6,2.9,8.9,4.9,13.1c0,0,0,0,0,0c5.1,10.6,12.4,20,21.4,27.4c0,0,0,0,0,0
		c4.4,3.7,9.3,6.9,14.5,9.6c0,0,0,0,0,0c2.6,1.3,5.3,2.6,8,3.6c0,0,0.1,0,0.1,0c0.8,0.3,1.6,0.6,2.5,0.9c0.3,0.1,0.6,0.2,0.8,0.3
		c0.7,0.2,1.5,0.5,2.2,0.7c0.9,0.3,1.8,0.5,2.7,0.8c0.5,0.1,1.1,0.3,1.6,0.4c0.7,0.2,1.5,0.3,2.2,0.5c0.4,0.1,0.9,0.2,1.3,0.3
		c5,1,10.2,1.5,15.6,1.5c0.2,0,0.4,0,0.5,0c1,0,2.1,0,3.1-0.1c0.3,0,0.6,0,1,0c1.1-0.1,2.2-0.1,3.3-0.3c0.4,0,0.8-0.1,1.1-0.1
		c0.7-0.1,1.5-0.2,2.2-0.3c0.7-0.1,1.4-0.2,2.1-0.3c0.7-0.1,1.3-0.2,1.9-0.3c0.7-0.1,1.4-0.3,2-0.4c0.2,0,0.4-0.1,0.7-0.2
		c0.6-0.1,1.2-0.3,1.9-0.4c0,0,0,0,0,0c5-1.3,9.9-3,14.4-5.2c0,0,0,0,0,0c7.8-3.7,15-8.6,21.2-14.5c0,0,0,0,0,0
		c3.4-3.2,6.5-6.7,9.3-10.4c0,0,0,0,0,0c5.8-7.8,10.3-16.7,13-26.4c0,0,0-0.1,0-0.1c0.3-1.2,0.7-2.5,0.9-3.7
		C172.1,107.3,172.8,101.3,172.8,95.2C172.8,95.2,172.8,95.2,172.8,95.2z M80.2,107.8c-4.5-1.1-9.1,1.6-10.2,6.2
		c-0.1,0.3-0.1,0.6-0.2,0.9l-10.9,0c4.4-9.2,9.8-17.1,15.6-23.8c1.1,0.7,2.3,1.1,3.7,1.1c2.5,0,4.7-1.4,6-3.4
		c8.7,3.1,17.9,7.5,26.8,13.5c-0.6,1-1,2.2-1,3.5c0,2,0.9,3.8,2.2,5.1c-6.4,10.2-13.7,18.3-20.7,24.6c-1-0.8-2.4-1.3-3.8-1.3
		c-0.4,0-0.8,0-1.2,0.1l-4.3-10.8c2-1.1,3.5-3,4.1-5.3C87.5,113.5,84.7,108.9,80.2,107.8z M121.4,49.2c-7.6-1.5-14.9-2.1-21.9-2.1
		c-3.4,0-6.8,0.2-10.1,0.4c-0.3-1.8-1.3-3.4-2.7-4.6c1.8-3.4,3.7-6.4,5.7-9.1c9.6,2.6,19.9,6.7,29.9,12.9
		C121.9,47.6,121.6,48.4,121.4,49.2z M121.5,53.8c-5.5,2.4-12.8,6-20.6,11.1c-0.9-1-2.1-1.7-3.6-1.7c-0.2,0-0.5,0-0.7,0.1
		c-1.4-1.8-2.8-3.4-4.2-5c-1.4-1.6-2.9-3.1-4.3-4.6c0.7-0.9,1.2-2.1,1.5-3.3c9.9-0.9,20.5-0.5,31.7,1.7
		C121.2,52.7,121.3,53.2,121.5,53.8z M90.2,60.1c1.3,1.4,2.5,2.9,3.8,4.4c-0.8,0.8-1.4,2-1.4,3.3c0,0.8,0.2,1.6,0.6,2.2
		c-1.7,1.3-3.5,2.6-5.3,4c-2,1.6-4,3.3-6,5.1c-1.1-0.7-2.4-1.1-3.8-1.1c-2.8,0-5.2,1.6-6.3,4c-1.7-0.4-3.3-0.8-4.9-1.1
		c-11.5-2.4-22.3-3.1-31.1-3.1c-6,0-11.1,0.3-15,0.7c-0.2-0.5-0.4-1-0.7-1.5c7.8-5.6,22.2-14.7,40.7-20.8c4.4-1.5,9.2-2.8,14.3-3.8
		c1.3,2.4,3.8,4.1,6.8,4.1c1.5,0,2.8-0.4,4-1.1C87.3,57,88.8,58.5,90.2,60.1z M85.1,86c0-0.3,0.1-0.6,0.1-0.9c0-1.4-0.4-2.7-1.2-3.8
		c1.9-1.7,3.8-3.4,5.7-4.9c1.9-1.5,3.8-3,5.6-4.3c0.6,0.3,1.3,0.5,2,0.5c0.8,0,1.5-0.2,2.2-0.6c5.3,7.7,10.2,16.9,13.9,27.7
		c-0.2,0.1-0.4,0.2-0.5,0.4C103.6,93.7,94.1,89.2,85.1,86z M101.5,69.9c0.3-0.6,0.5-1.3,0.5-2c0-0.1,0-0.2,0-0.3
		c7.9-5.1,15.2-8.7,20.6-11.1c1.4,2.5,3.8,4.3,6.7,4.9c-1.8,14.5-5.6,27-10.6,37.6c-0.5-0.1-1.1-0.2-1.7-0.2c-0.3,0-0.6,0-0.9,0.1
		C112.2,87.5,107,77.9,101.5,69.9z M132,61.5c0.5,0,1-0.1,1.4-0.2c3.5,11.2,5.2,21.8,5.8,31.6c-4.8,2.8-10.5,5.6-16.9,8.3
		c-0.3-0.4-0.7-0.8-1.1-1.1C126.3,89.2,130.2,76.4,132,61.5z M123.6,103.7c5.9-2.5,11.1-5,15.7-7.6c0.3,9.4-0.5,17.9-1.8,25.5
		c-0.2,0.1-0.4,0.1-0.6,0.2c-4.3-5.1-8.8-9.7-13.5-13.7c0.3-0.8,0.5-1.6,0.5-2.5C123.9,105,123.8,104.3,123.6,103.7z M136.1,60.3
		c0.8-0.4,1.6-1,2.3-1.7c6.4,5.3,12.8,13.8,18.1,22.1c-3.6,3.2-8.4,6.8-14.5,10.5C141.3,81.7,139.5,71.3,136.1,60.3z M142.4,58.5
		c7.6,3.2,15.4,7.3,23.1,12.7c-1.1,1.4-3.3,4.2-7,7.7C152.9,70.1,147.5,63.3,142.4,58.5z M154.3,51.4c0.7,0,1.3-0.1,1.9-0.4
		c3.5,5,6.4,10.5,8.6,16.2c-8.1-5.3-16.1-9.4-24-12.4c0.4-1.1,0.6-2.2,0.6-3.4c0-0.2,0-0.4,0-0.5l8.8-1.8
		C151.1,50.5,152.5,51.4,154.3,51.4z M132.1,28.5c6.9,4.2,13.2,9.4,18.5,15.4c-0.5,0.7-0.9,1.5-1,2.4l-8.8,1.7
		c-1.3-3.8-4.7-6.5-8.9-6.8l-1-12C131.4,29.1,131.8,28.8,132.1,28.5z M113,20.2c4,1.1,7.8,2.5,11.5,4.2c0,0.2-0.1,0.4-0.1,0.6
		c0,2.3,1.6,4.1,3.7,4.6l1,11.9c-0.5,0.1-0.9,0.2-1.3,0.4c-5.2-8.6-11.3-16.2-15.4-20.9C112.6,20.7,112.8,20.5,113,20.2z
		 M106.8,23.8c1.3,0,2.5-0.4,3.5-1c4,4.6,9.9,12,15,20.3c-0.5,0.4-1,0.8-1.5,1.3c-10-6.2-20.2-10.3-29.7-13c3-3.9,6-6.9,8.3-9.2
		C103.7,23.3,105.2,23.8,106.8,23.8z M92,17.4c2.7,0,5.3,0.1,7.9,0.4c0.1,0.9,0.4,1.7,0.8,2.4c-2.7,2.5-6,6-9.5,10.5
		c-12.3-3.1-23.2-4-30.9-4.1c-0.1-0.8-0.3-1.5-0.6-2.2C69.6,19.9,80.5,17.4,92,17.4z M60.3,29.4c7.2,0.1,17.5,0.9,29.1,3.8
		c-1.8,2.6-3.5,5.4-5.2,8.5c-0.7-0.2-1.5-0.4-2.3-0.4c-2.1,0-3.9,0.8-5.3,2.2c-6.4-5.1-12.3-8.9-17-11.5
		C60,31.1,60.2,30.3,60.3,29.4z M42.9,34.8c1.9,2,4.5,3.2,7.4,3.2c3.2,0,6-1.5,7.9-3.7c4.6,2.6,10.5,6.3,16.8,11.4
		c-0.5,1-0.7,2.1-0.7,3.2c0,0.3,0,0.6,0,0.8c-5.2,1.1-10,2.4-14.4,3.9C41,60,26.2,69.3,18.3,75c-0.4-0.3-0.8-0.6-1.3-0.8
		C21.4,58.5,30.6,44.9,42.9,34.8z M42.3,155.1c-8.6-7.2-15.7-16.2-20.6-26.4c1.8-1.3,3-3.4,3-5.7c0-3.8-3.1-7-7-7
		c-0.3,0-0.6,0-0.8,0.1c-1.9-6.6-2.8-13.6-2.8-20.8c0-2.2,0.1-4.3,0.3-6.4c3.8-0.4,6.8-3.5,6.9-7.4c9.5-0.9,26.3-1.5,45.2,2.4
		c1.6,0.3,3.2,0.7,4.8,1.1c0,0.1,0,0.2,0,0.3c0,1.5,0.5,2.8,1.2,3.9c-6.3,7.2-12.1,15.7-16.7,25.8l-6.8,0c-0.5-2-2.3-3.4-4.5-3.4
		c-2.6,0-4.7,2.1-4.7,4.7c0,2.6,2.1,4.7,4.7,4.7c2.2,0,4.1-1.6,4.5-3.6l5.7,0c-4.5,10.5-7.5,22.5-8.2,36.1
		C45,153.4,43.5,154.1,42.3,155.1z M49.4,153.2c0.7-13.7,3.8-25.7,8.4-36.1l12,0c0.4,3.3,2.9,6.2,6.3,7.1c1.4,0.3,2.8,0.3,4.1,0
		l4.3,10.8c-1.7,1.1-2.9,3-2.9,5.2c0,0.9,0.2,1.8,0.6,2.6c-10.3,7.5-20.1,12.1-26.6,14.7C54.3,155.3,52.1,153.6,49.4,153.2z
		 M118.7,162.7c-4.1,0.1-7.4,3.5-7.4,7.7c0,0.1,0,0.1,0,0.2c-6,1.5-12.2,2.4-18.6,2.4c-0.3-4-3.6-7.2-7.7-7.2
		c-3.6,0-6.6,2.5-7.5,5.8c-7.6-1.4-14.7-3.9-21.4-7.4c0.3-0.8,0.4-1.7,0.4-2.6c0-0.5-0.1-1-0.1-1.4c6.7-2.6,16.7-7.4,27.4-15.2
		c1.1,0.8,2.4,1.3,3.8,1.3c3.4,0,6.2-2.8,6.2-6.2c0-1-0.2-1.9-0.6-2.7c7.2-6.4,14.8-14.8,21.3-25.3c0.7,0.3,1.5,0.4,2.3,0.4
		c0,0,0.1,0,0.1,0C120.3,126.9,121.3,143.6,118.7,162.7z M121.5,163.2c2.6-19.5,1.6-36.5-1.7-51.1c0.8-0.4,1.5-0.8,2.1-1.4
		c4.4,3.8,8.7,8.2,12.8,13.1c-0.5,0.7-0.8,1.6-0.8,2.5c0,1.5,0.7,2.8,1.8,3.7c-0.6,2.3-1.2,4.4-1.8,6.5c-3.7,12.1-8.6,21.4-12,27
		C121.9,163.3,121.7,163.2,121.5,163.2z M144.9,148.3c0,1.2,0.3,2.3,0.8,3.2c-6.1,5.8-13,10.6-20.7,14.2c-0.2-0.3-0.4-0.5-0.7-0.7
		c3.5-5.7,8.4-15.1,12.3-27.6c0.6-2,1.2-4.2,1.8-6.5c0.1,0,0.1,0,0.2,0c0.5,0,1-0.1,1.5-0.3c2.7,3.7,5.3,7.8,7.7,12.1
		C146.1,143.9,144.9,146,144.9,148.3z M154.4,141.8c-0.8-0.3-1.6-0.5-2.5-0.5c-0.5,0-1,0.1-1.5,0.2c-2.5-4.5-5.2-8.7-8-12.6
		c0.6-0.8,0.9-1.7,0.9-2.7c0-2-1.2-3.6-2.9-4.3c1.4-8.1,2.2-17.3,1.8-27.3c6.7-4,11.9-7.8,15.9-11.3c3.6,5.9,6.6,11.4,8.8,15.5
		c-1.9,1.4-3.1,3.6-3.1,6.1c0,3.1,1.8,5.7,4.5,7C165.7,122.9,160.9,133,154.4,141.8z M169.9,97.4c-0.2,0-0.4,0.1-0.6,0.2
		c-2.2-4.2-5.2-9.8-8.8-15.7c-0.1-0.2-0.2-0.3-0.3-0.5c3.3-3.1,5.5-5.6,6.9-7.4c1.9,6.7,2.9,13.8,2.9,21.2
		C170,95.9,169.9,96.7,169.9,97.4z"/>
	<g>
		<path class="st0" d="M209.6,101.2c4.9-4.8,10.9-7.2,18.1-7.2s13.2,2.4,18.1,7.2c4.9,4.8,7.4,10.5,7.4,17.3
			c0,6.7-2.5,12.5-7.4,17.3c-4.9,4.8-10.9,7.2-18.1,7.2s-13.2-2.4-18.1-7.2c-4.9-4.8-7.4-10.5-7.4-17.3
			C202.3,111.8,204.7,106,209.6,101.2z M217,129.4c2.9,3,6.5,4.4,10.7,4.4c4.2,0,7.7-1.5,10.7-4.4c2.9-3,4.4-6.6,4.4-10.9
			s-1.5-8-4.4-10.9c-2.9-3-6.5-4.5-10.7-4.5c-4.2,0-7.7,1.5-10.7,4.5c-2.9,3-4.4,6.6-4.4,10.9S214.1,126.5,217,129.4z"/>
		<path class="st0" d="M305.9,95.1v46.9h-8.7l-23.1-29.8v29.8h-10.1V95.1h8.7l23.1,29.8V95.1H305.9z"/>
		<path class="st0" d="M319.5,141.9V95.1h10.1v37.8h21.7v9H319.5z"/>
		<path class="st0" d="M360.6,95.1h10.1v46.9h-10.1V95.1z"/>
		<path class="st0" d="M426,95.1v46.9h-8.7l-23.1-29.8v29.8h-10.1V95.1h8.7l23.1,29.8V95.1H426z"/>
		<path class="st0" d="M474.8,132.9v9h-35.2V95.1h34.5v9.1h-24.4v9.4h19v9h-19v10.4H474.8z"/>
	</g>
</g>
</svg>
